<svg xmlns="http://www.w3.org/2000/svg" version="1.1" xmlns:xlink="http://www.w3.org/1999/xlink" xmlns:svgjs="http://svgjs.com/svgjs" x="0" y="0" viewBox="0 0 24 24" fill="#fff" style="enable-background:new 0 0 512 512" xml:space="preserve" class=""><g><path  d="m12.87 15.07-2.54-2.51.03-.03A17.52 17.52 0 0 0 14.07 6H17V4h-7V2H8v2H1v1.99h11.17C11.5 7.92 10.44 9.75 9 11.35 8.07 10.32 7.3 9.19 6.69 8h-2c.73 1.63 1.73 3.17 2.98 4.56l-5.09 5.02L4 19l5-5 3.11 3.11zM18.5 10h-2L12 22h2l1.12-3h4.75L21 22h2zm-2.62 7 1.62-4.33L19.12 17z" data-original="#000000" class=""></path></g></svg>